<?xml version="1.0" encoding="UTF-8" standalone="no"?>
<!DOCTYPE svg PUBLIC "-//W3C//DTD SVG 1.1//EN" "http://www.w3.org/Graphics/SVG/1.1/DTD/svg11.dtd">
<svg width="100%" height="100%" viewBox="0 0 200 194" version="1.1" xmlns="http://www.w3.org/2000/svg" xmlns:xlink="http://www.w3.org/1999/xlink" xml:space="preserve" xmlns:serif="http://www.serif.com/" style="fill-rule:evenodd;clip-rule:evenodd;stroke-linejoin:round;stroke-miterlimit:2;">
    <g transform="matrix(1,0,0,1,-318,-1133)">
        <g id="transparent-logo-dark" serif:id="transparent logo dark" transform="matrix(1,0,0,1.00335,318,1133)">
            <rect x="0" y="0" width="200" height="193.353" style="fill:none;"/>
            <clipPath id="_clip1">
                <rect x="0" y="0" width="200" height="193.353"/>
            </clipPath>
            <g clip-path="url(#_clip1)">
                <g transform="matrix(1,0,0,0.996666,-4.59517e-06,-926.069)">
                    <g id="Ebene-1" serif:id="Ebene 1">
                        <path id="path32" d="M100.918,1119.35C94.83,1114.7 86.226,1110.59 76.077,1107.5C58.152,1102.03 32.431,1104.59 12.458,1113.82C8.173,1115.8 3.527,1117.42 2.134,1117.42C-0.109,1117.42 -0.318,1117.1 0.302,1114.63C1.388,1110.3 5.788,1105 14.245,1097.82C20.109,1092.85 25.414,1089.64 36.054,1084.67L50.115,1078.09L50.095,1074.4C50.064,1067.79 47.202,1056.95 43.762,1050.43C38.8,1041.01 23.049,1025.53 13.323,1020.51C9.177,1018.37 6.175,1016.27 6.652,1015.85C7.129,1015.42 17.103,1008.5 28.816,1000.47L50.113,985.866L50.113,973.075C50.113,958.975 49.504,956.902 43.786,951.522C36.845,944.991 29.626,942.963 21.813,945.35C15.305,947.339 9.233,948.157 8.599,947.13C7.831,945.887 12.662,939.872 16.445,937.363C26.746,930.53 42.387,927.387 52.144,930.189C59.162,932.205 65.774,936.347 71.188,942.118C77.919,949.294 78.893,950.692 81.322,956.669L83.638,962.367L107.346,946.495C120.386,937.766 131.464,930.623 131.965,930.623C132.85,930.623 168.747,980.676 169.766,983.331C170.086,984.165 163.391,989.384 151.761,997.364C141.578,1004.35 133.246,1010.36 133.246,1010.72C133.246,1011.07 138.338,1015.71 144.562,1021.03C160.516,1034.65 164.861,1041.39 175.065,1068.36C182.852,1088.94 187.174,1096.8 189.971,1095.47C190.665,1095.14 192.191,1094.16 193.361,1093.31C195.314,1091.88 195.671,1091.95 197.744,1094.15L200,1096.55L186.068,1108.63C172.92,1120.02 171.942,1120.67 168.692,1120.06C160.982,1118.61 154.985,1108.42 146.127,1081.73C139.609,1062.09 135.992,1055.6 126.623,1046.74C120.239,1040.7 110.463,1035.66 103.183,1034.67L98.313,1034L98.864,1082.92L112.604,1088.42L126.345,1093.92L129.301,1091.09L132.256,1088.26L134.485,1090.49L136.714,1092.72L130.159,1099.68C112.71,1118.21 108.255,1122.55 106.703,1122.52C105.778,1122.5 103.174,1121.08 100.916,1119.35L100.918,1119.35ZM90.142,1023.5L90.142,965.5L86.562,967.819L82.983,970.137L82.971,1025.22C82.956,1083.74 82.741,1081.24 87.834,1081.41L90.143,1081.5L90.142,1023.5ZM140.659,996.799C137.944,992.125 111.029,954.29 110.4,954.263C109.97,954.244 107.323,955.73 104.517,957.565L99.416,960.9L99.376,1026.08L120.386,1012.08C134.639,1002.58 141.159,997.664 140.657,996.799L140.659,996.799ZM49.718,994.544C49.467,994.293 44.967,996.974 39.719,1000.5L30.176,1006.92L34.155,1010.08C36.343,1011.82 40.714,1015.48 43.867,1018.21L49.601,1023.17L49.888,1009.08C50.045,1001.34 49.969,994.795 49.717,994.544L49.718,994.544Z" style="fill-rule:nonzero;"/>
                    </g>
                </g>
            </g>
        </g>
    </g>
</svg>
