<?xml version="1.0" encoding="UTF-8" standalone="no"?>
<!DOCTYPE svg PUBLIC "-//W3C//DTD SVG 1.1//EN" "http://www.w3.org/Graphics/SVG/1.1/DTD/svg11.dtd">
<svg width="100%" height="100%" viewBox="0 0 863 194" version="1.1" xmlns="http://www.w3.org/2000/svg" xmlns:xlink="http://www.w3.org/1999/xlink" xml:space="preserve" xmlns:serif="http://www.serif.com/" style="fill-rule:evenodd;clip-rule:evenodd;stroke-linejoin:round;stroke-miterlimit:2;">
    <g transform="matrix(1,0,0,1,0,-1733)">
        <g id="transparent-textLogo-dark" serif:id="transparent textLogo dark" transform="matrix(4.315,0,0,1.00335,0,1733)">
            <rect x="0" y="0" width="200" height="193.353" style="fill:none;"/>
            <g transform="matrix(0.123017,0,0,0.529048,-23.4035,59.0851)">
                <g id="Ebene-1" serif:id="Ebene 1">
                    <g>
                        <g transform="matrix(452.319,0,0,452.319,183.914,199.513)">
                            <path d="M0.182,-0.688L0.169,-0.686L0.16,-0.686C0.151,-0.685 0.146,-0.684 0.142,-0.684C0.14,-0.683 0.136,-0.682 0.131,-0.681C0.12,-0.678 0.11,-0.674 0.101,-0.67C0.092,-0.666 0.084,-0.662 0.079,-0.659C0.064,-0.65 0.053,-0.637 0.045,-0.62L0.054,-0.62C0.056,-0.62 0.057,-0.62 0.058,-0.621L0.062,-0.621C0.065,-0.621 0.067,-0.621 0.07,-0.622C0.072,-0.622 0.075,-0.622 0.078,-0.623C0.087,-0.625 0.094,-0.627 0.099,-0.629C0.103,-0.631 0.107,-0.633 0.11,-0.634L0.114,-0.632L0.121,-0.632C0.136,-0.632 0.152,-0.626 0.169,-0.613C0.184,-0.602 0.194,-0.589 0.198,-0.574L0.198,-0.479L0.037,-0.368C0.04,-0.365 0.042,-0.364 0.045,-0.364C0.085,-0.347 0.12,-0.32 0.149,-0.284C0.182,-0.245 0.198,-0.206 0.198,-0.165L0.198,-0.143L0.093,-0.093C0.082,-0.083 0.072,-0.074 0.064,-0.067C0.055,-0.06 0.048,-0.054 0.042,-0.049C0.028,-0.034 0.019,-0.019 0.014,-0.002L0.031,-0C0.056,-0.013 0.081,-0.024 0.106,-0.031C0.14,-0.04 0.168,-0.046 0.189,-0.047C0.192,-0.047 0.194,-0.047 0.195,-0.048L0.23,-0.048C0.253,-0.048 0.283,-0.041 0.321,-0.028C0.354,-0.016 0.38,-0 0.399,0.019L0.411,0.019L0.514,-0.091L0.498,-0.105L0.477,-0.085L0.374,-0.126L0.374,-0.304C0.411,-0.304 0.445,-0.29 0.476,-0.261C0.507,-0.232 0.527,-0.202 0.537,-0.171L0.572,-0.062C0.575,-0.058 0.577,-0.054 0.578,-0.05C0.581,-0.046 0.583,-0.042 0.584,-0.038C0.589,-0.029 0.597,-0.018 0.608,-0.005C0.618,0.006 0.63,0.011 0.643,0.012L0.744,-0.076L0.729,-0.093L0.705,-0.076L0.682,-0.103L0.628,-0.246C0.624,-0.255 0.621,-0.262 0.618,-0.265C0.615,-0.27 0.613,-0.274 0.612,-0.277C0.61,-0.28 0.608,-0.282 0.607,-0.283C0.602,-0.29 0.597,-0.297 0.593,-0.303C0.588,-0.309 0.584,-0.314 0.581,-0.318L0.498,-0.39L0.638,-0.486L0.498,-0.684L0.32,-0.564C0.316,-0.579 0.31,-0.594 0.301,-0.608C0.292,-0.622 0.282,-0.635 0.27,-0.646C0.258,-0.657 0.245,-0.667 0.23,-0.674C0.215,-0.681 0.199,-0.686 0.182,-0.688ZM0.347,-0.558L0.347,-0.128L0.318,-0.134L0.318,-0.537L0.347,-0.558ZM0.419,-0.599L0.533,-0.436L0.376,-0.331L0.376,-0.57L0.419,-0.599ZM0.198,-0.452L0.198,-0.341C0.181,-0.357 0.17,-0.368 0.163,-0.373C0.154,-0.379 0.148,-0.384 0.144,-0.388C0.135,-0.393 0.129,-0.398 0.124,-0.403L0.198,-0.452Z" style="fill-rule:nonzero;"/>
                        </g>
                        <g transform="matrix(452.319,0,0,452.319,536.722,199.513)">
                            <path d="M0.186,-0.669L0.209,-0.669C0.19,-0.652 0.177,-0.635 0.17,-0.62C0.163,-0.605 0.158,-0.585 0.155,-0.56L0.155,-0.384L0.291,-0.498C0.311,-0.482 0.326,-0.466 0.337,-0.451C0.348,-0.434 0.357,-0.414 0.362,-0.393L0.362,-0.085C0.349,-0.025 0.318,0.021 0.268,0.053C0.218,0.086 0.164,0.108 0.107,0.12L0.104,0.12C0.103,0.119 0.102,0.119 0.102,0.118C0.101,0.118 0.098,0.117 0.095,0.116L0.094,0.116C0.093,0.115 0.093,0.115 0.092,0.115L0.091,0.115C0.09,0.114 0.09,0.114 0.089,0.114L0.095,0.099C0.188,0.068 0.245,0.019 0.267,-0.048L0.267,-0.38L0.229,-0.415L0.153,-0.353L0.153,-0.101L0.184,-0.064L0.105,0.004L0.027,-0.064L0.058,-0.101L0.058,-0.424L0.006,-0.426L0.006,-0.479L0.062,-0.479L0.062,-0.56C0.054,-0.599 0.038,-0.628 0.014,-0.647L0.021,-0.649C0.023,-0.647 0.026,-0.646 0.029,-0.646L0.033,-0.646C0.034,-0.645 0.035,-0.645 0.037,-0.645C0.043,-0.643 0.051,-0.639 0.063,-0.633C0.074,-0.627 0.081,-0.621 0.086,-0.614C0.087,-0.614 0.087,-0.613 0.088,-0.612C0.089,-0.611 0.089,-0.61 0.089,-0.609L0.093,-0.605C0.12,-0.64 0.151,-0.66 0.186,-0.667L0.186,-0.669Z" style="fill-rule:nonzero;"/>
                        </g>
                        <g transform="matrix(452.319,0,0,452.319,732.577,199.513)">
                            <path d="M0.18,-0.498C0.198,-0.483 0.219,-0.469 0.244,-0.457C0.269,-0.444 0.291,-0.435 0.31,-0.43L0.343,-0.421L0.343,-0.076L0.192,0.004L0.064,-0.062L0.012,-0.076L0.033,-0.107L0.039,-0.14L0.039,-0.415C0.064,-0.42 0.089,-0.43 0.114,-0.445C0.139,-0.46 0.161,-0.477 0.18,-0.496L0.18,-0.498ZM0.136,-0.409L0.136,-0.122L0.246,-0.074L0.246,-0.362L0.136,-0.409Z" style="fill-rule:nonzero;"/>
                        </g>
                        <g transform="matrix(452.319,0,0,452.319,917.123,199.513)">
                            <path d="M0.01,-0.645L0.312,-0.438C0.313,-0.439 0.316,-0.442 0.32,-0.447C0.322,-0.449 0.326,-0.453 0.332,-0.458C0.337,-0.463 0.344,-0.467 0.353,-0.471L0.343,-0.438L0.343,-0.074C0.327,-0.067 0.303,-0.056 0.272,-0.041C0.257,-0.032 0.236,-0.018 0.207,-0C0.206,-0 0.205,0 0.204,0.001C0.204,0.002 0.203,0.003 0.201,0.004C0.199,0.006 0.197,0.007 0.196,0.008L0.12,-0.039L0.012,-0.074C0.031,-0.091 0.041,-0.112 0.041,-0.138L0.041,-0.413L0.13,-0.45L0.008,-0.55L0.01,-0.645ZM0.167,-0.426L0.136,-0.407L0.136,-0.126L0.246,-0.081L0.246,-0.36L0.167,-0.426Z" style="fill-rule:nonzero;"/>
                        </g>
                        <g transform="matrix(452.319,0,0,452.319,1101.67,199.513)">
                            <path d="M0.101,-0.492L0.174,-0.426L0.145,-0.388L0.145,-0.107C0.145,-0.096 0.147,-0.088 0.15,-0.082C0.153,-0.075 0.158,-0.07 0.167,-0.066L0.19,-0.085L0.205,-0.07L0.116,0.006C0.1,0.006 0.087,0.001 0.076,-0.01C0.061,-0.025 0.052,-0.042 0.051,-0.06C0.05,-0.063 0.05,-0.067 0.05,-0.072L0.05,-0.39L0.027,-0.43L0.101,-0.492ZM0.134,-0.653L0.194,-0.653L0.114,-0.545L0.134,-0.653Z" style="fill-rule:nonzero;"/>
                        </g>
                        <g transform="matrix(452.319,0,0,452.319,1209.77,199.513)">
                            <path d="M0.099,-0.498L0.107,-0.498L0.18,-0.434C0.175,-0.42 0.169,-0.409 0.16,-0.4C0.16,-0.4 0.157,-0.397 0.151,-0.391L0.149,-0.13C0.149,-0.12 0.151,-0.111 0.156,-0.103C0.16,-0.095 0.166,-0.088 0.174,-0.081L0.175,-0.081C0.175,-0.08 0.175,-0.08 0.177,-0.079C0.178,-0.078 0.178,-0.078 0.179,-0.078C0.179,-0.078 0.179,-0.078 0.18,-0.077L0.18,-0.076L0.182,-0.076C0.182,-0.075 0.183,-0.074 0.184,-0.074L0.186,-0.074L0.19,-0.079L0.192,-0.079L0.262,-0.143L0.262,-0.393L0.233,-0.428L0.312,-0.498L0.384,-0.434L0.388,-0.424L0.36,-0.39L0.36,-0.107C0.36,-0.107 0.362,-0.102 0.365,-0.092C0.367,-0.09 0.37,-0.087 0.373,-0.082C0.373,-0.081 0.374,-0.08 0.375,-0.08C0.375,-0.077 0.377,-0.075 0.38,-0.075C0.38,-0.074 0.381,-0.073 0.382,-0.072L0.403,-0.087L0.417,-0.074L0.331,0.008L0.326,0.008C0.325,0.007 0.325,0.007 0.324,0.007C0.323,0.007 0.32,0.006 0.316,0.005C0.315,0.004 0.313,0.003 0.31,0.002C0.277,-0.021 0.26,-0.054 0.26,-0.099L0.26,-0.101C0.26,-0.102 0.26,-0.102 0.261,-0.103L0.261,-0.107C0.261,-0.108 0.261,-0.108 0.262,-0.109L0.262,-0.11L0.126,0.004C0.126,0.004 0.126,0.004 0.125,0.003C0.124,0.002 0.123,0.002 0.122,0.001L0.121,-0L0.119,-0C0.103,-0.013 0.089,-0.027 0.078,-0.042C0.066,-0.057 0.058,-0.073 0.054,-0.091L0.054,-0.393L0.035,-0.413L0.019,-0.403L0.008,-0.415L0.099,-0.498Z" style="fill-rule:nonzero;"/>
                        </g>
                        <g transform="matrix(452.319,0,0,452.319,1415.13,199.513)">
                            <path d="M0.091,-0.498C0.128,-0.469 0.15,-0.431 0.156,-0.384C0.156,-0.384 0.156,-0.384 0.157,-0.383L0.157,-0.378L0.281,-0.496C0.286,-0.495 0.292,-0.492 0.3,-0.488C0.32,-0.469 0.333,-0.453 0.34,-0.439C0.351,-0.423 0.359,-0.403 0.364,-0.38L0.481,-0.496L0.55,-0.424L0.593,-0.467L0.607,-0.452C0.588,-0.427 0.575,-0.403 0.568,-0.38L0.568,-0.12C0.568,-0.117 0.569,-0.114 0.57,-0.11C0.57,-0.111 0.571,-0.109 0.573,-0.103C0.573,-0.101 0.574,-0.098 0.577,-0.095C0.579,-0.091 0.58,-0.088 0.581,-0.087L0.584,-0.084C0.587,-0.081 0.59,-0.079 0.592,-0.078C0.593,-0.077 0.594,-0.077 0.595,-0.077L0.614,-0.091L0.626,-0.076L0.543,0.004C0.516,-0.001 0.497,-0.013 0.488,-0.032C0.477,-0.056 0.471,-0.078 0.471,-0.099L0.471,-0.357C0.463,-0.382 0.448,-0.399 0.426,-0.409L0.362,-0.347L0.362,-0.101L0.395,-0.064L0.393,-0.056L0.316,0.002L0.304,-0L0.231,-0.062C0.246,-0.067 0.257,-0.081 0.264,-0.103L0.264,-0.349C0.263,-0.35 0.263,-0.351 0.263,-0.353L0.263,-0.358C0.262,-0.359 0.262,-0.36 0.262,-0.362C0.261,-0.367 0.258,-0.375 0.253,-0.386L0.244,-0.401C0.243,-0.403 0.241,-0.404 0.239,-0.405C0.237,-0.406 0.234,-0.407 0.23,-0.408C0.229,-0.408 0.228,-0.408 0.226,-0.409L0.221,-0.409L0.153,-0.343L0.153,-0.107C0.156,-0.103 0.16,-0.096 0.165,-0.087C0.17,-0.08 0.175,-0.075 0.179,-0.071C0.18,-0.07 0.182,-0.069 0.183,-0.067C0.184,-0.064 0.185,-0.063 0.186,-0.063C0.186,-0.062 0.187,-0.061 0.188,-0.06L0.105,0.008L0.027,-0.062L0.058,-0.095L0.056,-0.39L0.037,-0.413L0.01,-0.399L0,-0.413L0.091,-0.498Z" style="fill-rule:nonzero;"/>
                        </g>
                        <g transform="matrix(452.319,0,0,452.319,1717.73,199.513)">
                            <path d="M0.14,-0L0.066,-0.074L0.14,-0.149L0.215,-0.074L0.14,-0Z" style="fill-rule:nonzero;"/>
                        </g>
                    </g>
                </g>
            </g>
        </g>
    </g>
</svg>
